<svg xmlns="http://www.w3.org/2000/svg" width="1000" height="1000" viewBox="0 0 1000 1000">
<g>
<path d="M 463.00 999.05 C432.06,996.93 383.72,987.58 350.50,977.29 C297.84,960.98 237.66,929.90 197.50,898.27 C156.33,865.85 136.99,846.64 103.88,805.28 C79.03,774.24 56.11,734.41 36.68,688.50 C22.11,654.08 10.79,610.98 3.84,563.50 C0.62,541.53 0.62,541.44 0.61,500.50 C0.60,459.56 0.60,459.46 3.83,437.00 C13.03,373.00 28.07,324.92 55.91,270.50 C76.56,230.14 95.24,203.19 130.22,163.26 C146.89,144.23 164.52,128.02 194.93,103.75 C226.23,78.76 265.63,56.10 311.50,36.68 C345.90,22.12 388.94,10.81 436.50,3.83 C458.50,0.60 458.50,0.60 499.50,0.60 C540.31,0.60 540.60,0.62 563.00,3.81 C626.49,12.87 675.11,28.09 729.50,55.91 C769.86,76.56 796.81,95.24 836.74,130.22 C855.77,146.89 871.98,164.52 896.25,194.93 C921.24,226.23 943.90,265.63 963.32,311.50 C977.89,345.92 989.21,389.02 996.16,436.50 C999.38,458.47 999.38,458.56 999.39,499.50 C999.40,540.44 999.40,540.54 996.17,563.00 C986.97,627.00 971.93,675.08 944.09,729.50 C923.44,769.86 904.76,796.81 869.78,836.74 C853.21,855.65 835.75,871.73 805.28,896.12 C774.24,920.97 734.41,943.89 688.50,963.32 C654.08,977.89 610.42,989.36 564.00,996.03 C544.01,998.90 540.11,999.15 508.50,999.48 C489.80,999.67 469.33,999.48 463.00,999.05 ZM 558.34 955.90 C601.74,949.90 641.72,939.37 675.50,925.02 C699.49,914.83 727.05,900.64 747.35,888.01 C778.33,868.74 817.76,835.59 840.08,810.04 C872.61,772.80 890.53,746.82 908.75,710.50 C934.81,658.55 947.82,616.47 956.12,557.32 C959.22,535.23 959.33,533.39 959.33,500.00 C959.33,466.47 959.24,464.85 956.09,442.50 C947.72,383.20 934.33,340.13 908.31,288.77 C889.81,252.25 871.31,225.54 839.20,189.00 C824.84,172.66 806.56,155.94 779.75,134.62 C743.28,105.62 686.02,76.06 637.40,61.14 C612.82,53.60 587.13,48.06 557.32,43.88 C535.23,40.78 533.39,40.67 500.00,40.67 C466.47,40.67 464.85,40.76 442.50,43.91 C383.20,52.28 340.13,65.67 288.77,91.69 C252.25,110.19 225.54,128.69 189.00,160.80 C172.66,175.16 155.94,193.44 134.62,220.25 C105.62,256.72 76.06,313.98 61.14,362.60 C53.60,387.18 48.06,412.87 43.88,442.68 C40.78,464.77 40.67,466.61 40.67,500.00 C40.67,533.53 40.76,535.15 43.91,557.50 C52.28,616.80 65.67,659.87 91.69,711.23 C110.19,747.75 128.69,774.46 160.80,811.00 C183.04,836.31 222.05,869.04 252.75,888.17 C310.14,923.91 370.74,945.89 438.52,955.56 C463.58,959.13 478.15,959.92 509.84,959.39 C532.10,959.02 539.62,958.48 558.34,955.90 ZM 290.67 874.33 C290.30,873.97 290.00,703.19 290.00,494.83 L 290.00 116.00 L 375.00 116.00 C421.75,116.00 460.11,116.11 460.24,116.25 C460.38,116.39 460.72,255.55 460.99,425.50 L 461.50 734.50 L 601.25 734.75 L 741.00 735.01 L 741.00 805.00 L 741.00 875.00 L 516.17 875.00 C392.51,875.00 291.03,874.70 290.67,874.33 ZM 574.50 698.86 C553.16,697.80 532.84,693.94 519.73,688.46 C516.30,687.02 512.71,685.61 511.75,685.31 C510.13,684.81 510.00,682.44 510.00,654.29 L 510.00 623.81 L 514.75 627.40 C535.90,643.39 564.63,652.25 590.32,650.72 C605.73,649.79 616.69,645.98 623.23,639.27 C627.99,634.38 630.00,629.40 630.00,622.48 C630.00,613.31 625.20,606.14 613.78,598.28 C604.97,592.20 600.43,589.88 580.73,581.35 C552.94,569.33 545.07,564.69 532.06,552.69 C522.97,544.31 516.31,534.31 512.61,523.50 C510.31,516.80 509.78,513.23 509.32,501.50 C508.85,489.40 509.06,486.37 510.87,479.18 C521.57,436.70 565.99,414.75 632.65,418.98 C650.56,420.11 661.18,421.83 674.25,425.71 L 683.00 428.31 L 683.00 456.62 L 683.00 484.94 L 677.25 481.46 C674.09,479.55 668.12,476.67 664.00,475.07 C628.08,461.16 588.03,464.38 576.30,482.13 C573.85,485.83 573.50,487.32 573.50,493.93 C573.50,500.88 573.77,501.89 576.82,506.28 C583.42,515.79 592.76,521.62 621.99,534.50 C651.75,547.60 665.70,556.31 677.00,568.83 C683.70,576.25 690.12,588.15 692.73,598.00 C695.04,606.70 695.03,628.66 692.72,638.55 C682.79,681.01 641.33,702.16 574.50,698.86 ZM 491.00 251.50 L 491.00 120.00 L 520.49 120.00 L 549.98 120.00 L 550.24 172.25 L 550.50 224.50 L 604.75 224.76 L 659.00 225.02 L 659.00 172.51 L 659.00 120.00 L 689.00 120.00 L 719.01 120.00 L 718.75 251.25 L 718.50 382.50 L 688.75 382.76 L 659.00 383.03 L 659.00 329.51 L 659.00 276.00 L 604.50 276.00 L 550.00 276.00 L 550.00 329.50 L 550.00 383.00 L 520.50 383.00 L 491.00 383.00 L 491.00 251.50 Z" fill="rgba(222,250,223,1)"/>
</g>
</svg>